<mxfile host="app.diagrams.net" agent="Mozilla/5.0 (Windows NT 10.0; Win64; x64) AppleWebKit/537.36 (KHTML, like Gecko) Chrome/129.0.0.0 Safari/537.36" version="24.7.17">
  <diagram name="Page-1" id="QBQExu9JMCdMLVNKMQ2H">
    <mxGraphModel dx="724" dy="477" grid="1" gridSize="10" guides="1" tooltips="1" connect="1" arrows="1" fold="1" page="1" pageScale="1" pageWidth="850" pageHeight="1100" math="0" shadow="0">
      <root>
        <mxCell id="0" />
        <mxCell id="1" parent="0" />
        <mxCell id="XVnsgopd-X_FRebo5cDS-4" style="edgeStyle=orthogonalEdgeStyle;rounded=0;orthogonalLoop=1;jettySize=auto;html=1;exitX=0.5;exitY=1;exitDx=0;exitDy=0;entryX=0.5;entryY=0;entryDx=0;entryDy=0;" edge="1" parent="1" source="XVnsgopd-X_FRebo5cDS-1" target="XVnsgopd-X_FRebo5cDS-3">
          <mxGeometry relative="1" as="geometry" />
        </mxCell>
        <mxCell id="XVnsgopd-X_FRebo5cDS-1" value="Pocetak" style="ellipse;whiteSpace=wrap;html=1;" vertex="1" parent="1">
          <mxGeometry x="360" y="60" width="120" height="40" as="geometry" />
        </mxCell>
        <mxCell id="XVnsgopd-X_FRebo5cDS-2" value="" style="shape=trapezoid;perimeter=trapezoidPerimeter;whiteSpace=wrap;html=1;fixedSize=1;rotation=-180;" vertex="1" parent="1">
          <mxGeometry x="360" y="120" width="120" height="30" as="geometry" />
        </mxCell>
        <mxCell id="XVnsgopd-X_FRebo5cDS-6" style="edgeStyle=orthogonalEdgeStyle;rounded=0;orthogonalLoop=1;jettySize=auto;html=1;exitX=0.5;exitY=1;exitDx=0;exitDy=0;entryX=0.5;entryY=0;entryDx=0;entryDy=0;" edge="1" parent="1" source="XVnsgopd-X_FRebo5cDS-3" target="XVnsgopd-X_FRebo5cDS-5">
          <mxGeometry relative="1" as="geometry" />
        </mxCell>
        <mxCell id="XVnsgopd-X_FRebo5cDS-3" value="a" style="text;html=1;align=center;verticalAlign=middle;whiteSpace=wrap;rounded=0;" vertex="1" parent="1">
          <mxGeometry x="390" y="120" width="60" height="30" as="geometry" />
        </mxCell>
        <mxCell id="XVnsgopd-X_FRebo5cDS-8" style="edgeStyle=orthogonalEdgeStyle;rounded=0;orthogonalLoop=1;jettySize=auto;html=1;exitX=0.5;exitY=1;exitDx=0;exitDy=0;entryX=0.5;entryY=0;entryDx=0;entryDy=0;" edge="1" parent="1" source="XVnsgopd-X_FRebo5cDS-5" target="XVnsgopd-X_FRebo5cDS-7">
          <mxGeometry relative="1" as="geometry" />
        </mxCell>
        <mxCell id="XVnsgopd-X_FRebo5cDS-5" value="j = a mod 10&lt;div&gt;s = a div 100&lt;/div&gt;&lt;div&gt;d = (a div 10) mod 10&lt;/div&gt;" style="rounded=0;whiteSpace=wrap;html=1;" vertex="1" parent="1">
          <mxGeometry x="360" y="170" width="120" height="60" as="geometry" />
        </mxCell>
        <mxCell id="XVnsgopd-X_FRebo5cDS-10" style="edgeStyle=orthogonalEdgeStyle;rounded=0;orthogonalLoop=1;jettySize=auto;html=1;exitX=0;exitY=0.5;exitDx=0;exitDy=0;entryX=0.5;entryY=0;entryDx=0;entryDy=0;" edge="1" parent="1" source="XVnsgopd-X_FRebo5cDS-7" target="XVnsgopd-X_FRebo5cDS-9">
          <mxGeometry relative="1" as="geometry" />
        </mxCell>
        <mxCell id="XVnsgopd-X_FRebo5cDS-13" style="edgeStyle=orthogonalEdgeStyle;rounded=0;orthogonalLoop=1;jettySize=auto;html=1;exitX=1;exitY=0.5;exitDx=0;exitDy=0;entryX=0.5;entryY=0;entryDx=0;entryDy=0;" edge="1" parent="1" source="XVnsgopd-X_FRebo5cDS-7" target="XVnsgopd-X_FRebo5cDS-12">
          <mxGeometry relative="1" as="geometry" />
        </mxCell>
        <mxCell id="XVnsgopd-X_FRebo5cDS-7" value="a == j * j * j + d * d * d +s * s * s" style="shape=hexagon;perimeter=hexagonPerimeter2;whiteSpace=wrap;html=1;fixedSize=1;" vertex="1" parent="1">
          <mxGeometry x="325" y="250" width="190" height="40" as="geometry" />
        </mxCell>
        <mxCell id="XVnsgopd-X_FRebo5cDS-15" style="edgeStyle=orthogonalEdgeStyle;rounded=0;orthogonalLoop=1;jettySize=auto;html=1;exitX=0.5;exitY=1;exitDx=0;exitDy=0;" edge="1" parent="1" source="XVnsgopd-X_FRebo5cDS-9">
          <mxGeometry relative="1" as="geometry">
            <mxPoint x="440" y="379.9999999999999" as="targetPoint" />
          </mxGeometry>
        </mxCell>
        <mxCell id="XVnsgopd-X_FRebo5cDS-9" value="DA" style="shape=trapezoid;perimeter=trapezoidPerimeter;whiteSpace=wrap;html=1;fixedSize=1;" vertex="1" parent="1">
          <mxGeometry x="160" y="310" width="120" height="30" as="geometry" />
        </mxCell>
        <mxCell id="XVnsgopd-X_FRebo5cDS-11" value="DA" style="text;html=1;align=center;verticalAlign=middle;whiteSpace=wrap;rounded=0;" vertex="1" parent="1">
          <mxGeometry x="210" y="250" width="60" height="30" as="geometry" />
        </mxCell>
        <mxCell id="XVnsgopd-X_FRebo5cDS-16" style="edgeStyle=orthogonalEdgeStyle;rounded=0;orthogonalLoop=1;jettySize=auto;html=1;exitX=0.5;exitY=1;exitDx=0;exitDy=0;" edge="1" parent="1" source="XVnsgopd-X_FRebo5cDS-12">
          <mxGeometry relative="1" as="geometry">
            <mxPoint x="440" y="379.9999999999999" as="targetPoint" />
          </mxGeometry>
        </mxCell>
        <mxCell id="XVnsgopd-X_FRebo5cDS-12" value="NE" style="shape=trapezoid;perimeter=trapezoidPerimeter;whiteSpace=wrap;html=1;fixedSize=1;" vertex="1" parent="1">
          <mxGeometry x="550" y="310" width="120" height="30" as="geometry" />
        </mxCell>
        <mxCell id="XVnsgopd-X_FRebo5cDS-14" value="NE" style="text;html=1;align=center;verticalAlign=middle;whiteSpace=wrap;rounded=0;" vertex="1" parent="1">
          <mxGeometry x="560" y="250" width="60" height="30" as="geometry" />
        </mxCell>
        <mxCell id="XVnsgopd-X_FRebo5cDS-17" value="KRAJ" style="ellipse;whiteSpace=wrap;html=1;" vertex="1" parent="1">
          <mxGeometry x="380" y="380" width="120" height="30" as="geometry" />
        </mxCell>
      </root>
    </mxGraphModel>
  </diagram>
</mxfile>
